<svg width="116" height="28" viewBox="0 0 116 28" fill="none" xmlns="http://www.w3.org/2000/svg">
<path d="M13.4405 26.0404C6.7987 26.0404 1.40015 20.6418 1.40015 14.0001C1.40015 11.3568 2.24017 8.84791 3.83062 6.74225C4.11062 6.37264 4.63704 6.30544 5.00665 6.58545C5.37626 6.86546 5.45466 7.39187 5.17465 7.76148C3.80822 9.56473 3.08019 11.7264 3.08019 14.0001C3.08019 19.7122 7.72833 24.3604 13.4405 24.3604C19.1527 24.3604 23.8008 19.7122 23.8008 14.0001C23.8008 8.2879 19.1527 3.63976 13.4405 3.63976C12.9813 3.63976 12.6005 3.25895 12.6005 2.79974C12.6005 2.34053 12.9813 1.95972 13.4405 1.95972C20.0823 1.95972 25.4808 7.35827 25.4808 14.0001C25.4808 20.6418 20.0823 26.0404 13.4405 26.0404Z" fill="url(#paint0_linear_838_1188)"/>
<path d="M15.6871 5.61554C20.3067 6.85335 23.0628 11.6271 21.825 16.2466C21.7061 16.6902 21.2397 16.9595 20.7962 16.8406C20.3526 16.7218 20.0833 16.2554 20.2022 15.8118C21.2023 12.0794 18.9847 8.23845 15.2523 7.23834C11.5198 6.23823 7.67894 8.45578 6.67883 12.1882C5.67873 15.9207 7.89628 19.7616 11.6287 20.7617C12.0723 20.8805 12.3416 21.3469 12.2227 21.7905C12.1039 22.2341 11.6375 22.5033 11.1939 22.3845C6.57432 21.1467 3.81822 16.373 5.05603 11.7534C6.29385 7.13382 11.0675 4.37773 15.6871 5.61554Z" fill="url(#paint1_linear_838_1188)"/>
<path d="M9.38004 16.6875C9.15044 16.2898 9.28982 15.7696 9.68751 15.54C10.0852 15.3104 10.6054 15.4498 10.835 15.8475C11.8374 17.5838 14.0712 18.1823 15.8075 17.1799C17.5437 16.1774 18.1423 13.9437 17.1399 12.2074C16.9102 11.8097 17.0496 11.2895 17.4473 11.0599C17.845 10.8303 18.3652 10.9697 18.5948 11.3674C20.0621 13.9087 19.1888 17.1676 16.6475 18.6348C14.1062 20.1021 10.8473 19.2289 9.38004 16.6875Z" fill="url(#paint2_linear_838_1188)"/>
<path d="M42.9353 11.9923C42.9353 11.4346 42.8749 10.9931 42.7541 10.6678C42.6332 10.3425 42.4334 10.0962 42.1545 9.92886C41.8757 9.76156 41.5086 9.65467 41.0531 9.60819C40.6023 9.56172 40.0423 9.53848 39.3731 9.53848H36.243C35.6481 9.53848 35.1462 9.55707 34.7372 9.59425C34.3329 9.62678 33.9983 9.69649 33.7334 9.80338C33.4685 9.91027 33.264 10.0636 33.1199 10.2635C32.9759 10.4633 32.8713 10.7282 32.8062 11.0582C32.7412 11.3882 32.704 11.7948 32.6947 12.2781C32.6854 12.7568 32.6807 13.3308 32.6807 14C32.6807 14.6692 32.6854 15.2455 32.6947 15.7289C32.7086 16.2075 32.7481 16.6119 32.8132 16.9418C32.8783 17.2718 32.9805 17.5367 33.1199 17.7366C33.264 17.9364 33.4685 18.0898 33.7334 18.1967C33.9983 18.3035 34.3329 18.3756 34.7372 18.4128C35.1462 18.4453 35.6481 18.4616 36.243 18.4616H39.3731C39.8936 18.4616 40.342 18.4476 40.7185 18.4197C41.0949 18.3918 41.4156 18.3407 41.6805 18.2664C41.9454 18.192 42.1592 18.0898 42.3219 17.9596C42.4845 17.8295 42.61 17.6668 42.6983 17.4717C42.7912 17.2718 42.854 17.0348 42.8865 16.7606C42.919 16.4817 42.9353 16.1564 42.9353 15.7846H44.2738C44.2738 16.2308 44.2459 16.6351 44.1901 16.9976C44.1344 17.3555 44.0344 17.6761 43.8904 17.9596C43.7509 18.2385 43.5627 18.4801 43.3257 18.6846C43.0887 18.8891 42.7889 19.0588 42.4264 19.1935C42.0639 19.3237 41.6317 19.4189 41.1298 19.4793C40.6279 19.5444 40.0423 19.5769 39.3731 19.5769H36.243C35.4251 19.5769 34.7349 19.5258 34.1726 19.4236C33.6149 19.326 33.1548 19.1773 32.7923 18.9774C32.4298 18.7729 32.1486 18.5173 31.9488 18.2106C31.7536 17.9039 31.6095 17.5437 31.5166 17.1301C31.4283 16.7164 31.3771 16.2494 31.3632 15.7289C31.3493 15.2084 31.3423 14.6321 31.3423 14C31.3423 13.368 31.3493 12.7917 31.3632 12.2712C31.3771 11.7507 31.4283 11.2836 31.5166 10.87C31.6095 10.4563 31.7536 10.0962 31.9488 9.78944C32.1486 9.48271 32.4298 9.22943 32.7923 9.02959C33.1548 8.8251 33.6149 8.67406 34.1726 8.57646C34.7349 8.47422 35.4251 8.4231 36.243 8.4231H39.3731C40.0423 8.4231 40.6279 8.45563 41.1298 8.52069C41.6317 8.58111 42.0639 8.67638 42.4264 8.80651C42.7889 8.93199 43.0887 9.09233 43.3257 9.28752C43.5627 9.48271 43.7509 9.71276 43.8904 9.97766C44.0344 10.2426 44.1344 10.5423 44.1901 10.8769C44.2459 11.2116 44.2738 11.5834 44.2738 11.9923H42.9353Z" fill="#170F49"/>
<path d="M46.5115 19.3539V8.64617H55.4416C56.1108 8.64617 56.6499 8.70194 57.0589 8.81348C57.4678 8.92037 57.7815 9.08071 58 9.29449C58.2231 9.50362 58.3718 9.7662 58.4461 10.0822C58.5205 10.3983 58.5577 10.7608 58.5577 11.1697C58.5577 11.4672 58.5321 11.7297 58.481 11.9575C58.4299 12.1852 58.3625 12.3827 58.2788 12.55C58.1952 12.7173 58.0999 12.8591 57.993 12.9753C57.8861 13.0868 57.7769 13.1797 57.6654 13.2541C57.4051 13.4307 57.1077 13.5306 56.7731 13.5539C57.1913 13.5771 57.5631 13.6793 57.8884 13.8606C58.0279 13.9396 58.1626 14.0395 58.2928 14.1604C58.4275 14.2765 58.5461 14.4229 58.6483 14.5995C58.7552 14.7715 58.8412 14.976 58.9062 15.213C58.9713 15.4454 59.0038 15.7149 59.0038 16.0217C59.0038 16.3934 58.9852 16.735 58.9481 17.0464C58.9155 17.3531 58.8458 17.6297 58.7389 17.876C58.632 18.1223 58.4787 18.3384 58.2788 18.5243C58.079 18.7102 57.8118 18.8659 57.4771 18.9914C57.1472 19.1122 56.7405 19.2028 56.2572 19.2632C55.7785 19.3237 55.2045 19.3539 54.5353 19.3539H46.5115ZM54.0892 18.2385C54.6097 18.2385 55.0605 18.2315 55.4416 18.2176C55.8227 18.199 56.1457 18.1641 56.4106 18.113C56.6755 18.0572 56.8892 17.9805 57.0519 17.8829C57.2146 17.7807 57.34 17.6483 57.4283 17.4856C57.5213 17.3183 57.584 17.1161 57.6166 16.8791C57.6491 16.6421 57.6654 16.3563 57.6654 16.0217C57.6654 15.7614 57.6491 15.536 57.6166 15.3454C57.584 15.1503 57.5213 14.9876 57.4283 14.8575C57.34 14.7227 57.2146 14.6158 57.0519 14.5368C56.8892 14.4531 56.6755 14.3881 56.4106 14.3416C56.1457 14.2951 55.8227 14.2649 55.4416 14.251C55.0605 14.2324 54.6097 14.2231 54.0892 14.2231H47.85V18.2385H54.0892ZM54.0892 13.1077C54.5446 13.1077 54.9373 13.0984 55.2673 13.0798C55.5973 13.0612 55.8784 13.0264 56.1108 12.9753C56.3432 12.9241 56.5314 12.8544 56.6755 12.7661C56.8195 12.6732 56.9311 12.5547 57.0101 12.4106C57.0937 12.2665 57.1495 12.0946 57.1774 11.8947C57.2053 11.6902 57.2192 11.4486 57.2192 11.1697C57.2192 10.8723 57.1867 10.6306 57.1216 10.4447C57.0565 10.2588 56.9404 10.1171 56.7731 10.0195C56.6057 9.91725 56.378 9.84986 56.0899 9.81733C55.8064 9.78015 55.4416 9.76156 54.9954 9.76156H47.85V13.1077H54.0892Z" fill="#170F49"/>
<path d="M62.5731 9.53848V19.3539H61.2346V8.64617H63.4654L69.7045 18.0154L75.9437 8.64617H78.0769V19.3539H76.7384V9.68487L70.3807 19.3539H69.0283L62.5731 9.53848Z" fill="#170F49"/>
<path d="M89.2377 8.4231C90.0557 8.4231 90.7435 8.47422 91.3012 8.57646C91.8635 8.67406 92.3259 8.8251 92.6884 9.02959C93.0509 9.22943 93.3298 9.48271 93.525 9.78944C93.7202 10.0962 93.8619 10.4563 93.9502 10.87C94.0432 11.2836 94.0966 11.7507 94.1106 12.2712C94.1291 12.7917 94.1384 13.368 94.1384 14C94.1384 14.6321 94.1291 15.2084 94.1106 15.7289C94.0966 16.2494 94.0432 16.7164 93.9502 17.1301C93.8619 17.5437 93.7202 17.9039 93.525 18.2106C93.3298 18.5173 93.0509 18.7729 92.6884 18.9774C92.3259 19.1773 91.8635 19.326 91.3012 19.4236C90.7435 19.5258 90.0557 19.5769 89.2377 19.5769H85.2084C84.3904 19.5769 83.7003 19.5258 83.138 19.4236C82.5803 19.326 82.1202 19.1773 81.7577 18.9774C81.3952 18.7729 81.114 18.5173 80.9142 18.2106C80.719 17.9039 80.5749 17.5437 80.4819 17.1301C80.3936 16.7164 80.3425 16.2494 80.3286 15.7289C80.3146 15.2084 80.3077 14.6321 80.3077 14C80.3077 13.368 80.3146 12.7917 80.3286 12.2712C80.3425 11.7507 80.3936 11.2836 80.4819 10.87C80.5749 10.4563 80.719 10.0962 80.9142 9.78944C81.114 9.48271 81.3952 9.22943 81.7577 9.02959C82.1202 8.8251 82.5803 8.67406 83.138 8.57646C83.7003 8.47422 84.3904 8.4231 85.2084 8.4231H89.2377ZM89.2377 18.4616C89.8279 18.4616 90.3252 18.4453 90.7295 18.4128C91.1385 18.3756 91.4755 18.3035 91.7404 18.1967C92.0053 18.0898 92.2098 17.9364 92.3538 17.7366C92.4979 17.5367 92.6025 17.2718 92.6675 16.9418C92.7326 16.6119 92.7698 16.2075 92.7791 15.7289C92.793 15.2455 92.8 14.6692 92.8 14C92.8 13.3308 92.793 12.7568 92.7791 12.2781C92.7698 11.7948 92.7326 11.3882 92.6675 11.0582C92.6025 10.7282 92.4979 10.4633 92.3538 10.2635C92.2098 10.0636 92.0053 9.91027 91.7404 9.80338C91.4801 9.69649 91.1455 9.62678 90.7365 9.59425C90.3322 9.55707 89.8326 9.53848 89.2377 9.53848H85.2084C84.6135 9.53848 84.1116 9.55707 83.7026 9.59425C83.2983 9.62678 82.9637 9.69649 82.6988 9.80338C82.4339 9.91027 82.2294 10.0636 82.0853 10.2635C81.9412 10.4633 81.8367 10.7282 81.7716 11.0582C81.7065 11.3882 81.6694 11.7948 81.6601 12.2781C81.6508 12.7568 81.6461 13.3308 81.6461 14C81.6461 14.6692 81.6508 15.2455 81.6601 15.7289C81.674 16.2075 81.7135 16.6119 81.7786 16.9418C81.8436 17.2718 81.9459 17.5367 82.0853 17.7366C82.2294 17.9364 82.4339 18.0898 82.6988 18.1967C82.9637 18.3035 83.2983 18.3756 83.7026 18.4128C84.1116 18.4453 84.6135 18.4616 85.2084 18.4616H89.2377Z" fill="#170F49"/>
<path d="M109.977 16.9H101.5L100.162 19.3539H98.6L104.846 8.64617H106.631L112.877 19.3539H111.315L109.977 16.9ZM109.308 15.7846L105.738 9.53848L102.169 15.7846H109.308Z" fill="#170F49"/>
<path d="M114.662 8.64617H116V19.3539H114.662V8.64617Z" fill="#170F49"/>
<defs>
<linearGradient id="paint0_linear_838_1188" x1="1.40015" y1="14.0001" x2="27.9332" y2="14.5358" gradientUnits="userSpaceOnUse">
<stop stop-color="#7F80FF"/>
<stop offset="1" stop-color="#4B25FF"/>
</linearGradient>
<linearGradient id="paint1_linear_838_1188" x1="21.825" y1="16.2466" x2="3.44824" y2="10.9228" gradientUnits="userSpaceOnUse">
<stop stop-color="#7F80FF"/>
<stop offset="1" stop-color="#4B25FF"/>
</linearGradient>
<linearGradient id="paint2_linear_838_1188" x1="13.5674" y1="13.3" x2="16.8934" y2="19.2194" gradientUnits="userSpaceOnUse">
<stop stop-color="#7F80FF"/>
<stop offset="1" stop-color="#4B25FF"/>
</linearGradient>
</defs>
</svg>
